<?xml version="1.0" standalone="no"?>
<!DOCTYPE svg PUBLIC "-//W3C//DTD SVG 20010904//EN"
 "http://www.w3.org/TR/2001/REC-SVG-20010904/DTD/svg10.dtd">
<svg version="1.0" xmlns="http://www.w3.org/2000/svg"
 width="1024.000000pt" height="1024.000000pt" viewBox="0 0 1024.000000 1024.000000"
 preserveAspectRatio="xMidYMid meet">

<g transform="translate(0.000000,1024.000000) scale(0.100000,-0.100000)"
fill="#000000" stroke="none">
<path d="M0 6315 l0 -3925 5120 0 5120 0 0 3925 0 3925 -5120 0 -5120 0 0
-3925z m7134 1480 c412 -54 780 -236 1071 -529 662 -667 716 -1716 128 -2451
-89 -111 -221 -240 -321 -314 -62 -45 -64 -47 -58 -83 68 -427 -21 -842 -258
-1197 -35 -53 -81 -116 -102 -141 -63 -76 -195 -199 -279 -262 -44 -33 -79
-64 -77 -70 1 -5 -2 -7 -8 -3 -13 8 -143 -69 -133 -79 4 -4 -1 -4 -11 0 -15 6
-17 4 -11 -6 5 -8 4 -11 -2 -7 -6 4 -45 -9 -86 -28 -41 -19 -113 -47 -159 -61
-45 -14 -89 -31 -96 -37 -7 -5 -15 -7 -19 -4 -3 4 -12 2 -19 -4 -8 -6 -21 -9
-29 -5 -9 3 -28 -2 -43 -12 -15 -10 -23 -12 -18 -4 6 9 2 11 -16 7 -100 -22
-319 -25 -2017 -25 -1003 0 -1831 4 -1840 9 -9 4 -34 11 -56 14 -39 5 -39 5
-12 -7 26 -11 21 -13 -51 -12 -44 1 -78 4 -75 9 2 4 -3 7 -12 7 -9 0 -14 3
-11 8 6 9 -19 43 -30 41 -10 -3 -32 6 -162 67 -51 24 -100 41 -110 38 -13 -5
-14 -4 -3 4 11 8 7 14 -20 27 -19 10 -45 26 -58 36 -13 10 -28 16 -35 12 -6
-3 -8 -3 -4 2 10 11 -52 56 -65 48 -6 -3 -7 -1 -4 4 4 6 -18 32 -49 58 -170
145 -328 397 -399 636 -80 265 -73 579 19 845 85 251 263 493 482 658 88 67
286 174 364 197 40 12 40 12 40 63 0 28 7 98 15 156 107 754 665 1358 1406
1524 399 89 818 39 1186 -140 65 -32 120 -59 123 -61 3 -2 25 36 49 83 229
449 643 791 1122 929 108 31 244 59 339 68 94 10 311 5 414 -8z m-4849 -5185
c-3 -5 -12 -10 -18 -10 -7 0 -6 4 3 10 19 12 23 12 15 0z m185 -92 c0 -6 -6
-5 -15 2 -8 7 -15 14 -15 16 0 2 7 1 15 -2 8 -4 15 -11 15 -16z m17 0 c-3 -8
-6 -5 -6 6 -1 11 2 17 5 13 3 -3 4 -12 1 -19z m4307 7 c-4 -8 -9 -15 -13 -15
-4 0 -8 7 -8 15 0 8 6 15 13 15 8 0 11 -6 8 -15z m-39 -25 c8 -14 -41 -17 -53
-4 -9 10 -5 12 19 12 16 -1 32 -4 34 -8z m-85 -10 c-8 -5 -22 -9 -30 -9 -10 0
-8 3 5 9 27 12 43 12 25 0z"/>
<path d="M2520 2530 c0 -13 18 -22 24 -11 3 5 -1 11 -9 15 -8 3 -15 1 -15 -4z"/>
<path d="M2555 2509 c-4 -5 -5 -9 -3 -10 36 -6 78 -6 78 1 0 5 -7 7 -15 4 -8
-4 -15 -2 -15 3 0 12 -38 14 -45 2z"/>
</g>
</svg>
